<svg xmlns="http://www.w3.org/2000/svg" viewBox="0 0 120 120" width="120" height="120">
  <path d="M21.6,60 Q12,48 6,40.8 Q19.2,52.8 24,55.2 Q12,72 6,79.2 Q19.2,67.2 21.6,60 Z" fill="#3880D1"/>
  <path d="M21.6,60 C33.6,40.8 55.2,33.6 74.4,33.6 C88.8,33.6 100.8,43.2 103.2,55.2 C105.6,60 100.8,64.8 93.6,66 C86.4,69.6 81.6,72 74.4,74.4 C52.8,86.4 33.6,79.2 21.6,60 Z" fill="#4D9EEB"/>
  <path d="M36,69.6 Q60,84 84,69.6 Q60,60 36,69.6 Z" fill="#EDF7FF"/>
  <path d="M57.6,37.2 Q48,26.4 48,14.4 Q62.4,26.4 69.6,36 Z" fill="#3880D1"/>
  <path d="M100.8,54 Q110.4,50.4 116.4,55.2 Q110.4,60 100.8,60 Z" fill="#4D9EEB"/>
  <circle cx="88.8" cy="51.6" r="4" fill="#111"/>
</svg>
