<svg xmlns="http://www.w3.org/2000/svg" viewBox="0 0 120 150" width="240" height="300">
  <defs>
    <filter id="ds2" x="-20%" y="-20%" width="140%" height="140%">
      <feDropShadow dx="0" dy="3" stdDeviation="3" flood-color="#000" flood-opacity="0.25"/>
    </filter>
  </defs>
  <g filter="url(#ds2)">
    <!-- 尾びれ -->
    <path d="M21.6,60 Q12,48 6,40.8 Q19.2,52.8 24,55.2 Q12,72 6,79.2 Q19.2,67.2 21.6,60 Z" fill="#3880D1"/>
    <!-- 胴体（お腹がだらーんと膨らんでいる） -->
    <path d="M21.6,60 C33.6,40.8 55.2,33.6 74.4,33.6 C88.8,33.6 100.8,43.2 103.2,55.2 C105.6,60 100.8,76.8 93.6,78 C86.4,81.6 81.6,84 74.4,86.4 C52.8,104.4 33.6,91.2 21.6,60 Z" fill="#4D9EEB"/>
    <!-- お腹（白・たっぷり） -->
    <path d="M36,75.6 Q60,103.2 84,75.6 Q60,60 36,75.6 Z" fill="#EDF7FF"/>
    <!-- 背びれ -->
    <path d="M57.6,37.2 Q48,26.4 48,14.4 Q62.4,26.4 69.6,36 Z" fill="#3880D1"/>
    <!-- 胸びれ -->
    <path d="M67.2,72 Q60,86 60,96 Q72,90 76.8,78 Z" fill="#3880D1"/>
    <!-- 口先 -->
    <path d="M100.8,54 Q110.4,50.4 116.4,55.2 Q110.4,60 100.8,60 Z" fill="#4D9EEB"/>
    <!-- 目（ジト目ぎみ） -->
    <circle cx="88.8" cy="51.6" r="4" fill="#111"/>
    <circle cx="89.6" cy="49.8" r="1.3" fill="#fff"/>
    <path d="M83,47 Q88.8,45.5 94,47" stroke="#3880D1" stroke-width="1.4" fill="none" opacity="0.6"/>
  </g>
</svg>
