<svg xmlns="http://www.w3.org/2000/svg" viewBox="0 0 120 130" width="240" height="260">
  <defs>
    <filter id="ds" x="-20%" y="-20%" width="140%" height="140%">
      <feDropShadow dx="0" dy="3" stdDeviation="3" flood-color="#000" flood-opacity="0.25"/>
    </filter>
  </defs>
  <g filter="url(#ds)">
    <!-- 尾びれ -->
    <path d="M21.6,60 Q12,48 6,40.8 Q19.2,52.8 24,55.2 Q12,72 6,79.2 Q19.2,67.2 21.6,60 Z" fill="#3880D1"/>
    <!-- 胴体 -->
    <path d="M21.6,60 C33.6,40.8 55.2,33.6 74.4,33.6 C88.8,33.6 100.8,43.2 103.2,55.2 C105.6,60 100.8,64.8 93.6,66 C86.4,69.6 81.6,72 74.4,74.4 C52.8,86.4 33.6,79.2 21.6,60 Z" fill="#4D9EEB"/>
    <!-- お腹（白） -->
    <path d="M36,69.6 Q60,84 84,69.6 Q60,60 36,69.6 Z" fill="#EDF7FF"/>
    <!-- 背びれ -->
    <path d="M57.6,37.2 Q48,26.4 48,14.4 Q62.4,26.4 69.6,36 Z" fill="#3880D1"/>
    <!-- 胸びれ -->
    <path d="M67.2,67.2 Q60,79.2 60,88.8 Q72,84 76.8,72 Z" fill="#3880D1"/>
    <!-- 口先 -->
    <path d="M100.8,54 Q110.4,50.4 116.4,55.2 Q110.4,60 100.8,60 Z" fill="#4D9EEB"/>
    <path d="M103.2,58.8 Q109.2,56.4 115.2,56.4" stroke="#3880D1" stroke-width="1.2" fill="none" opacity="0.7"/>
    <!-- 目 -->
    <circle cx="88.8" cy="51.6" r="4" fill="#111"/>
    <circle cx="89.6" cy="49.8" r="1.3" fill="#fff"/>
  </g>
  <!-- 泡 -->
  <circle cx="118" cy="40" r="2.2" fill="#9ed0f7" opacity="0.7"/>
  <circle cx="113" cy="32" r="1.4" fill="#9ed0f7" opacity="0.6"/>
</svg>
